<svg xmlns="http://www.w3.org/2000/svg" width="760" height="536" viewBox="0 0 760 536" font-family="ui-monospace,'SFMono-Regular',Menlo,Consolas,'Liberation Mono','DejaVu Sans Mono',monospace"><clipPath id="r"><rect width="760" height="536" rx="12"/></clipPath><g clip-path="url(#r)"><rect width="760" height="536" fill="#0d1117"/><rect width="760" height="40" fill="#161b22"/><circle cx="24" cy="20" r="6" fill="#ff5f56"/><circle cx="44" cy="20" r="6" fill="#ffbd2e"/><circle cx="64" cy="20" r="6" fill="#27c93f"/><text x="380.0" y="25" text-anchor="middle" fill="#8b949e" font-size="13">2048 — score 0</text><line x1="0" y1="40" x2="760" y2="40" stroke="#30363d"/><rect x="174.0" y="56" width="412" height="412" rx="10" fill="#1c2128"/><rect x="186" y="68" width="88" height="88" rx="6" fill="#21262d"/><rect x="286" y="68" width="88" height="88" rx="6" fill="#21262d"/><rect x="386" y="68" width="88" height="88" rx="6" fill="#21262d"/><rect x="486" y="68" width="88" height="88" rx="6" fill="#eee4da"/><text x="530" y="126" text-anchor="middle" font-size="40" font-weight="bold" fill="#776e65">2</text><rect x="186" y="168" width="88" height="88" rx="6" fill="#21262d"/><rect x="286" y="168" width="88" height="88" rx="6" fill="#21262d"/><rect x="386" y="168" width="88" height="88" rx="6" fill="#21262d"/><rect x="486" y="168" width="88" height="88" rx="6" fill="#21262d"/><rect x="186" y="268" width="88" height="88" rx="6" fill="#eee4da"/><text x="230" y="326" text-anchor="middle" font-size="40" font-weight="bold" fill="#776e65">2</text><rect x="286" y="268" width="88" height="88" rx="6" fill="#21262d"/><rect x="386" y="268" width="88" height="88" rx="6" fill="#21262d"/><rect x="486" y="268" width="88" height="88" rx="6" fill="#21262d"/><rect x="186" y="368" width="88" height="88" rx="6" fill="#21262d"/><rect x="286" y="368" width="88" height="88" rx="6" fill="#21262d"/><rect x="386" y="368" width="88" height="88" rx="6" fill="#21262d"/><rect x="486" y="368" width="88" height="88" rx="6" fill="#21262d"/><text x="380.0" y="500" text-anchor="middle" font-size="15" fill="#adbac7" xml:space="preserve">run  up · down · left · right   ·   quit</text><rect x="0" y="508" width="760" height="28" fill="#161b22"/><text x="16" y="527" fill="#6e7681" font-size="12">cmds 6  ·  last @harryngai  ·  2026-07-16 16:30 UTC</text></g><rect x="0.5" y="0.5" width="759" height="535" rx="12" fill="none" stroke="#30363d"/></svg>