<svg xmlns="http://www.w3.org/2000/svg" width="760" height="534" viewBox="0 0 760 534" font-family="ui-monospace,'SFMono-Regular',Menlo,Consolas,'Liberation Mono','DejaVu Sans Mono',monospace"><clipPath id="r"><rect width="760" height="534" rx="12"/></clipPath><g clip-path="url(#r)"><rect width="760" height="534" fill="#0d1117"/><rect width="760" height="40" fill="#161b22"/><circle cx="24" cy="20" r="6" fill="#ff5f56"/><circle cx="44" cy="20" r="6" fill="#ffbd2e"/><circle cx="64" cy="20" r="6" fill="#27c93f"/><text x="380.0" y="25" text-anchor="middle" fill="#8b949e" font-size="13">minesweeper — 9×9 · 10 mines</text><line x1="0" y1="40" x2="760" y2="40" stroke="#30363d"/><text x="208" y="82" text-anchor="middle" font-size="12" fill="#6e7681">1</text><text x="251" y="82" text-anchor="middle" font-size="12" fill="#6e7681">2</text><text x="294" y="82" text-anchor="middle" font-size="12" fill="#6e7681">3</text><text x="337" y="82" text-anchor="middle" font-size="12" fill="#6e7681">4</text><text x="380" y="82" text-anchor="middle" font-size="12" fill="#6e7681">5</text><text x="423" y="82" text-anchor="middle" font-size="12" fill="#6e7681">6</text><text x="466" y="82" text-anchor="middle" font-size="12" fill="#6e7681">7</text><text x="509" y="82" text-anchor="middle" font-size="12" fill="#6e7681">8</text><text x="552" y="82" text-anchor="middle" font-size="12" fill="#6e7681">9</text><text x="174" y="116" text-anchor="middle" font-size="12" fill="#6e7681">A</text><text x="174" y="159" text-anchor="middle" font-size="12" fill="#6e7681">B</text><text x="174" y="202" text-anchor="middle" font-size="12" fill="#6e7681">C</text><text x="174" y="245" text-anchor="middle" font-size="12" fill="#6e7681">D</text><text x="174" y="288" text-anchor="middle" font-size="12" fill="#6e7681">E</text><text x="174" y="331" text-anchor="middle" font-size="12" fill="#6e7681">F</text><text x="174" y="374" text-anchor="middle" font-size="12" fill="#6e7681">G</text><text x="174" y="417" text-anchor="middle" font-size="12" fill="#6e7681">H</text><text x="174" y="460" text-anchor="middle" font-size="12" fill="#6e7681">I</text><rect x="188" y="92" width="40" height="40" rx="4" fill="#3b434d"/><rect x="188" y="92" width="40" height="3" rx="1.5" fill="#4b555f"/><rect x="231" y="92" width="40" height="40" rx="4" fill="#3b434d"/><rect x="231" y="92" width="40" height="3" rx="1.5" fill="#4b555f"/><rect x="274" y="92" width="40" height="40" rx="4" fill="#3b434d"/><rect x="274" y="92" width="40" height="3" rx="1.5" fill="#4b555f"/><rect x="317" y="92" width="40" height="40" rx="4" fill="#3b434d"/><rect x="317" y="92" width="40" height="3" rx="1.5" fill="#4b555f"/><rect x="360" y="92" width="40" height="40" rx="4" fill="#3b434d"/><rect x="360" y="92" width="40" height="3" rx="1.5" fill="#4b555f"/><rect x="403" y="92" width="40" height="40" rx="4" fill="#3b434d"/><rect x="403" y="92" width="40" height="3" rx="1.5" fill="#4b555f"/><rect x="446" y="92" width="40" height="40" rx="4" fill="#3b434d"/><rect x="446" y="92" width="40" height="3" rx="1.5" fill="#4b555f"/><rect x="489" y="92" width="40" height="40" rx="4" fill="#3b434d"/><rect x="489" y="92" width="40" height="3" rx="1.5" fill="#4b555f"/><rect x="532" y="92" width="40" height="40" rx="4" fill="#3b434d"/><rect x="532" y="92" width="40" height="3" rx="1.5" fill="#4b555f"/><rect x="188" y="135" width="40" height="40" rx="4" fill="#3b434d"/><rect x="188" y="135" width="40" height="3" rx="1.5" fill="#4b555f"/><rect x="231" y="135" width="40" height="40" rx="4" fill="#3b434d"/><rect x="231" y="135" width="40" height="3" rx="1.5" fill="#4b555f"/><rect x="274" y="135" width="40" height="40" rx="4" fill="#3b434d"/><rect x="274" y="135" width="40" height="3" rx="1.5" fill="#4b555f"/><rect x="317" y="135" width="40" height="40" rx="4" fill="#3b434d"/><rect x="317" y="135" width="40" height="3" rx="1.5" fill="#4b555f"/><rect x="360" y="135" width="40" height="40" rx="4" fill="#3b434d"/><rect x="360" y="135" width="40" height="3" rx="1.5" fill="#4b555f"/><rect x="403" y="135" width="40" height="40" rx="4" fill="#3b434d"/><rect x="403" y="135" width="40" height="3" rx="1.5" fill="#4b555f"/><rect x="446" y="135" width="40" height="40" rx="4" fill="#3b434d"/><rect x="446" y="135" width="40" height="3" rx="1.5" fill="#4b555f"/><rect x="489" y="135" width="40" height="40" rx="4" fill="#3b434d"/><rect x="489" y="135" width="40" height="3" rx="1.5" fill="#4b555f"/><rect x="532" y="135" width="40" height="40" rx="4" fill="#3b434d"/><rect x="532" y="135" width="40" height="3" rx="1.5" fill="#4b555f"/><rect x="188" y="178" width="40" height="40" rx="4" fill="#3b434d"/><rect x="188" y="178" width="40" height="3" rx="1.5" fill="#4b555f"/><rect x="231" y="178" width="40" height="40" rx="4" fill="#3b434d"/><rect x="231" y="178" width="40" height="3" rx="1.5" fill="#4b555f"/><rect x="274" y="178" width="40" height="40" rx="4" fill="#3b434d"/><rect x="274" y="178" width="40" height="3" rx="1.5" fill="#4b555f"/><rect x="317" y="178" width="40" height="40" rx="4" fill="#3b434d"/><rect x="317" y="178" width="40" height="3" rx="1.5" fill="#4b555f"/><rect x="360" y="178" width="40" height="40" rx="4" fill="#3b434d"/><rect x="360" y="178" width="40" height="3" rx="1.5" fill="#4b555f"/><rect x="403" y="178" width="40" height="40" rx="4" fill="#3b434d"/><rect x="403" y="178" width="40" height="3" rx="1.5" fill="#4b555f"/><rect x="446" y="178" width="40" height="40" rx="4" fill="#3b434d"/><rect x="446" y="178" width="40" height="3" rx="1.5" fill="#4b555f"/><rect x="489" y="178" width="40" height="40" rx="4" fill="#3b434d"/><rect x="489" y="178" width="40" height="3" rx="1.5" fill="#4b555f"/><rect x="532" y="178" width="40" height="40" rx="4" fill="#3b434d"/><rect x="532" y="178" width="40" height="3" rx="1.5" fill="#4b555f"/><rect x="188" y="221" width="40" height="40" rx="4" fill="#3b434d"/><rect x="188" y="221" width="40" height="3" rx="1.5" fill="#4b555f"/><rect x="231" y="221" width="40" height="40" rx="4" fill="#3b434d"/><rect x="231" y="221" width="40" height="3" rx="1.5" fill="#4b555f"/><rect x="274" y="221" width="40" height="40" rx="4" fill="#3b434d"/><rect x="274" y="221" width="40" height="3" rx="1.5" fill="#4b555f"/><rect x="317" y="221" width="40" height="40" rx="4" fill="#161b22" stroke="#21262d"/><text x="337" y="249" text-anchor="middle" font-size="22" font-weight="bold" fill="#58a6ff">1</text><rect x="360" y="221" width="40" height="40" rx="4" fill="#161b22" stroke="#21262d"/><text x="380" y="249" text-anchor="middle" font-size="22" font-weight="bold" fill="#58a6ff">1</text><rect x="403" y="221" width="40" height="40" rx="4" fill="#161b22" stroke="#21262d"/><text x="423" y="249" text-anchor="middle" font-size="22" font-weight="bold" fill="#3fb950">2</text><rect x="446" y="221" width="40" height="40" rx="4" fill="#3b434d"/><rect x="446" y="221" width="40" height="3" rx="1.5" fill="#4b555f"/><rect x="489" y="221" width="40" height="40" rx="4" fill="#3b434d"/><rect x="489" y="221" width="40" height="3" rx="1.5" fill="#4b555f"/><rect x="532" y="221" width="40" height="40" rx="4" fill="#3b434d"/><rect x="532" y="221" width="40" height="3" rx="1.5" fill="#4b555f"/><rect x="188" y="264" width="40" height="40" rx="4" fill="#3b434d"/><rect x="188" y="264" width="40" height="3" rx="1.5" fill="#4b555f"/><rect x="231" y="264" width="40" height="40" rx="4" fill="#3b434d"/><rect x="231" y="264" width="40" height="3" rx="1.5" fill="#4b555f"/><rect x="274" y="264" width="40" height="40" rx="4" fill="#3b434d"/><rect x="274" y="264" width="40" height="3" rx="1.5" fill="#4b555f"/><rect x="317" y="264" width="40" height="40" rx="4" fill="#161b22" stroke="#21262d"/><text x="337" y="292" text-anchor="middle" font-size="22" font-weight="bold" fill="#58a6ff">1</text><rect x="360" y="264" width="40" height="40" rx="4" fill="#161b22" stroke="#21262d"/><rect x="403" y="264" width="40" height="40" rx="4" fill="#161b22" stroke="#21262d"/><text x="423" y="292" text-anchor="middle" font-size="22" font-weight="bold" fill="#3fb950">2</text><rect x="446" y="264" width="40" height="40" rx="4" fill="#3b434d"/><rect x="446" y="264" width="40" height="3" rx="1.5" fill="#4b555f"/><rect x="489" y="264" width="40" height="40" rx="4" fill="#3b434d"/><rect x="489" y="264" width="40" height="3" rx="1.5" fill="#4b555f"/><rect x="532" y="264" width="40" height="40" rx="4" fill="#3b434d"/><rect x="532" y="264" width="40" height="3" rx="1.5" fill="#4b555f"/><rect x="188" y="307" width="40" height="40" rx="4" fill="#3b434d"/><rect x="188" y="307" width="40" height="3" rx="1.5" fill="#4b555f"/><rect x="231" y="307" width="40" height="40" rx="4" fill="#3b434d"/><rect x="231" y="307" width="40" height="3" rx="1.5" fill="#4b555f"/><rect x="274" y="307" width="40" height="40" rx="4" fill="#3b434d"/><rect x="274" y="307" width="40" height="3" rx="1.5" fill="#4b555f"/><rect x="317" y="307" width="40" height="40" rx="4" fill="#161b22" stroke="#21262d"/><text x="337" y="335" text-anchor="middle" font-size="22" font-weight="bold" fill="#3fb950">2</text><rect x="360" y="307" width="40" height="40" rx="4" fill="#161b22" stroke="#21262d"/><rect x="403" y="307" width="40" height="40" rx="4" fill="#161b22" stroke="#21262d"/><text x="423" y="335" text-anchor="middle" font-size="22" font-weight="bold" fill="#f85149">3</text><rect x="446" y="307" width="40" height="40" rx="4" fill="#3b434d"/><rect x="446" y="307" width="40" height="3" rx="1.5" fill="#4b555f"/><rect x="489" y="307" width="40" height="40" rx="4" fill="#3b434d"/><rect x="489" y="307" width="40" height="3" rx="1.5" fill="#4b555f"/><rect x="532" y="307" width="40" height="40" rx="4" fill="#3b434d"/><rect x="532" y="307" width="40" height="3" rx="1.5" fill="#4b555f"/><rect x="188" y="350" width="40" height="40" rx="4" fill="#3b434d"/><rect x="188" y="350" width="40" height="3" rx="1.5" fill="#4b555f"/><rect x="231" y="350" width="40" height="40" rx="4" fill="#3b434d"/><rect x="231" y="350" width="40" height="3" rx="1.5" fill="#4b555f"/><rect x="274" y="350" width="40" height="40" rx="4" fill="#3b434d"/><rect x="274" y="350" width="40" height="3" rx="1.5" fill="#4b555f"/><rect x="317" y="350" width="40" height="40" rx="4" fill="#161b22" stroke="#21262d"/><text x="337" y="378" text-anchor="middle" font-size="22" font-weight="bold" fill="#58a6ff">1</text><rect x="360" y="350" width="40" height="40" rx="4" fill="#161b22" stroke="#21262d"/><rect x="403" y="350" width="40" height="40" rx="4" fill="#161b22" stroke="#21262d"/><text x="423" y="378" text-anchor="middle" font-size="22" font-weight="bold" fill="#3fb950">2</text><rect x="446" y="350" width="40" height="40" rx="4" fill="#3b434d"/><rect x="446" y="350" width="40" height="3" rx="1.5" fill="#4b555f"/><rect x="489" y="350" width="40" height="40" rx="4" fill="#3b434d"/><rect x="489" y="350" width="40" height="3" rx="1.5" fill="#4b555f"/><rect x="532" y="350" width="40" height="40" rx="4" fill="#3b434d"/><rect x="532" y="350" width="40" height="3" rx="1.5" fill="#4b555f"/><rect x="188" y="393" width="40" height="40" rx="4" fill="#3b434d"/><rect x="188" y="393" width="40" height="3" rx="1.5" fill="#4b555f"/><rect x="231" y="393" width="40" height="40" rx="4" fill="#3b434d"/><rect x="231" y="393" width="40" height="3" rx="1.5" fill="#4b555f"/><rect x="274" y="393" width="40" height="40" rx="4" fill="#3b434d"/><rect x="274" y="393" width="40" height="3" rx="1.5" fill="#4b555f"/><rect x="317" y="393" width="40" height="40" rx="4" fill="#161b22" stroke="#21262d"/><text x="337" y="421" text-anchor="middle" font-size="22" font-weight="bold" fill="#58a6ff">1</text><rect x="360" y="393" width="40" height="40" rx="4" fill="#161b22" stroke="#21262d"/><text x="380" y="421" text-anchor="middle" font-size="22" font-weight="bold" fill="#58a6ff">1</text><rect x="403" y="393" width="40" height="40" rx="4" fill="#161b22" stroke="#21262d"/><text x="423" y="421" text-anchor="middle" font-size="22" font-weight="bold" fill="#3fb950">2</text><rect x="446" y="393" width="40" height="40" rx="4" fill="#3b434d"/><rect x="446" y="393" width="40" height="3" rx="1.5" fill="#4b555f"/><rect x="489" y="393" width="40" height="40" rx="4" fill="#3b434d"/><rect x="489" y="393" width="40" height="3" rx="1.5" fill="#4b555f"/><rect x="532" y="393" width="40" height="40" rx="4" fill="#3b434d"/><rect x="532" y="393" width="40" height="3" rx="1.5" fill="#4b555f"/><rect x="188" y="436" width="40" height="40" rx="4" fill="#3b434d"/><rect x="188" y="436" width="40" height="3" rx="1.5" fill="#4b555f"/><rect x="231" y="436" width="40" height="40" rx="4" fill="#3b434d"/><rect x="231" y="436" width="40" height="3" rx="1.5" fill="#4b555f"/><rect x="274" y="436" width="40" height="40" rx="4" fill="#3b434d"/><rect x="274" y="436" width="40" height="3" rx="1.5" fill="#4b555f"/><rect x="317" y="436" width="40" height="40" rx="4" fill="#3b434d"/><rect x="317" y="436" width="40" height="3" rx="1.5" fill="#4b555f"/><rect x="360" y="436" width="40" height="40" rx="4" fill="#3b434d"/><rect x="360" y="436" width="40" height="3" rx="1.5" fill="#4b555f"/><rect x="403" y="436" width="40" height="40" rx="4" fill="#3b434d"/><rect x="403" y="436" width="40" height="3" rx="1.5" fill="#4b555f"/><rect x="446" y="436" width="40" height="40" rx="4" fill="#3b434d"/><rect x="446" y="436" width="40" height="3" rx="1.5" fill="#4b555f"/><rect x="489" y="436" width="40" height="40" rx="4" fill="#3b434d"/><rect x="489" y="436" width="40" height="3" rx="1.5" fill="#4b555f"/><rect x="532" y="436" width="40" height="40" rx="4" fill="#3b434d"/><rect x="532" y="436" width="40" height="3" rx="1.5" fill="#4b555f"/><text x="380.0" y="502" text-anchor="middle" font-size="15" fill="#adbac7" xml:space="preserve">reveal &lt;cell&gt; · flag &lt;cell&gt;   e.g.  reveal e5</text><rect x="0" y="506" width="760" height="28" fill="#161b22"/><text x="16" y="525" fill="#6e7681" font-size="12">mines 10 · flags 0 · cleared 15/71</text></g><rect x="0.5" y="0.5" width="759" height="533" rx="12" fill="none" stroke="#30363d"/></svg>